<?xml version="1.0" encoding="utf-8"?>
<!-- Generator: Adobe Illustrator 16.0.0, SVG Export Plug-In . SVG Version: 6.00 Build 0)  -->
<!DOCTYPE svg PUBLIC "-//W3C//DTD SVG 1.1//EN" "http://www.w3.org/Graphics/SVG/1.1/DTD/svg11.dtd">
<svg version="1.1" id="Слой_2" xmlns="http://www.w3.org/2000/svg" xmlns:xlink="http://www.w3.org/1999/xlink" x="0px" y="0px"
	 width="574.923px" height="575px" viewBox="0 0 574.923 575" enable-background="new 0 0 574.923 575" xml:space="preserve">
<circle fill="#CAD542" cx="287.423" cy="287.5" r="287.5"/>
<g display="none">
	<path display="inline" d="M142.367,119.01c0.813,0.939,2.825,7.552,1.805,8.436c-1.347,1.167-4.559,0.591-8.559,4.054
		c-4.123,3.569-6.172,5.986-2.426,10.313c4.912,5.673,19.59-11.604,31.428,2.069c3.004,3.469,4.271,9.799-3.32,16.373l-10.817,9.365
		c-1.265,1.096-2.911,2.164-19.521-17.021c-12.228-14.123-11.474-15.561-10.453-16.445l18.082-15.655
		C139.606,119.615,141.66,118.194,142.367,119.01z M142.941,153.078c6.148,7.102,8.754,7.06,12.469,3.844
		c2.204-1.908,4.219-5.438,1.992-8.009c-5.938-6.857-14.081-0.592-15.469,0.61C141.035,150.3,141.35,151.241,142.941,153.078z"/>
	<path display="inline" d="M165.299,136.542c-7.16-10.93-4.658-20.315,1.394-24.279c4.969-3.255,11.004-3.206,14.494,2.124
		c6.361,9.711-9.514,17.205-6.436,21.902c1.391,2.123,5.828,1.41,8.087-0.069c7.407-4.852,3.709-10.498,4.341-10.912
		c0.678-0.444,2.352,1.816,2.588,2.177c3.758,5.736,1.492,11.933-3.928,15.483C177.753,148.264,170.033,143.769,165.299,136.542z
		 M168.467,128.077c0.325,0.497,0.877,0.846,1.464,0.461c0.542-0.355,7.579-7.547,6.07-9.85c-1.45-2.213-4.326-2.072-6.043-0.947
		C166.3,120.137,166.751,125.457,168.467,128.077z"/>
	<path display="inline" d="M201.254,101.515c-0.979,0.457-2.121,1.584,0.892,11.501c4.811,15.692,2.694,18.823-0.635,20.375
		c-2.789,1.3-5.844,1.651-6.254,0.77c-0.821-1.762-1.688-6.304-0.904-6.669c0.588-0.274,1.929,0.174,3.055-0.351
		c1.175-0.547,1.084-1.637-2.635-15.753c-2.819-10.781-2.818-12.569,0.266-14.006l11.307-5.27c1.566-0.73,7.783,9.541,11.524,17.568
		c0.845,1.811,5.621,12.573,4.495,13.098l-5.824,2.714c-0.979,0.457-1.541,0.658-1.77,0.169c-0.091-0.196-0.179-0.512-0.198-0.682
		c-0.891-6.258-2.513-10.507-7.509-21.227c-1.643-3.524-2.236-3.903-2.922-3.584L201.254,101.515z"/>
	<path display="inline" d="M226.683,84.974c0.998-0.237,1.351-0.154,1.476,0.372c0.112,0.473-0.393,4.2,0.591,8.352
		c0.273,1.156,1.182,1.94,3.126,1.479c5.886-1.395,15.593,2.799,16.913,8.37c0.884,3.731,1.471,11.362-10.038,14.089l-10.825,2.565
		c-0.894,0.211-3.693-10.669-4.279-13.139c-0.697-2.943-4.32-20.344-2.901-20.681L226.683,84.974z M236.808,111.546
		c4.1-0.971,5.57-3.429,4.873-6.372s-6.236-5.238-9.336-4.503c-1.945,0.46-1.758,3.358-1.31,5.25l0.224,0.946
		C232.131,110.545,233.13,112.417,236.808,111.546z M254.35,112.496c-0.112-0.473,0.007-9.104-3.13-22.347
		c-1.357-5.728-2.449-7.523-2.91-9.467c-0.148-0.631-0.134-0.801,2.073-1.324l2.891-0.685c2.154-0.51,2.699-0.084,6.423,15.628
		c3.959,16.711,3.91,17.444,1.336,18.054l-3.574,0.847C255.41,113.688,254.599,113.547,254.35,112.496z"/>
	<path display="inline" d="M289.384,76.958c2.268-0.041,2.525,11.295,2.619,16.424c0.33,18.301-0.36,18.907-4.949,18.99
		c-5.345,0.097-1.404-2.999-4.481-2.943c-0.485,0.009-1.707,1.165-2.667,1.83c-0.961,0.612-2.191,1.282-3.973,1.314
		c-4.48,0.081-8.688-2.651-8.968-18.091c-0.017-0.917,0.068-17.12,2.336-17.161l4.966-0.09c1.944-0.035,2.221,0.338,2.233,1.04
		c0.015,0.81-2.43,5.984-2.245,16.188c0.084,4.643,0.635,11.221,4.792,11.146c1.781-0.032,5.874-0.646,5.665-12.253
		c-0.117-6.479-2.096-14.327-2.111-15.191c-0.013-0.702,0.521-1.089,1.762-1.112L289.384,76.958z M279.263,66.773
		c2.753-0.05,3.253-2.273,4.926-2.303c1.242-0.022,3.445,2.314,3.488,4.689c0.031,1.728-3.278,3.894-8.461,3.987
		c-5.074,0.092-8.51-1.736-8.541-3.463c-0.043-2.375,1.795-5.217,3.037-5.239C275.169,64.417,276.509,66.823,279.263,66.773z"/>
	<path display="inline" d="M315.464,92.758c3.017-11.324,12.678-21.996,25.358-18.618c4.54,1.209,11.019,5.003,9.518,10.639
		c-0.806,3.027-3.353,4.193-6.64,3.317c-2.14-0.57,2.037-4.711-4.591-6.476c-7.619-2.03-12.926,4.884-14.663,11.407
		c-2.655,9.967,3.059,15.793,7.599,17.002c8.507,2.266,11.267-5.158,11.736-5.033c0.73,0.194,0.484,2.588-0.155,4.988
		c-2.058,7.724-9.149,10.641-16.456,8.695C315.325,115.523,312.657,103.299,315.464,92.758z"/>
	<path display="inline" d="M370.496,104.148c-0.98-0.453-2.579-0.597-8.208,8.103c-8.879,13.801-12.635,14.206-15.968,12.665
		c-2.794-1.292-5.032-3.397-4.625-4.279c0.816-1.765,3.727-5.357,4.51-4.994c0.589,0.272,1.112,1.584,2.239,2.106
		c1.176,0.543,1.95-0.229,10.33-12.178c6.413-9.111,7.779-10.264,10.866-8.836l11.322,5.234c1.568,0.725-2.264,12.1-5.979,20.138
		c-0.839,1.813-5.975,12.407-7.102,11.886l-5.832-2.696c-0.98-0.453-1.497-0.751-1.271-1.242c0.091-0.196,0.275-0.467,0.393-0.592
		c4.204-4.719,6.402-8.7,11.364-19.433c1.632-3.529,1.538-4.227,0.852-4.544L370.496,104.148z"/>
	<path display="inline" d="M381.484,121.734c4.673-7.331,13.199-12.973,21.122-7.923s6.407,15.162,1.735,22.493
		c-6.82,10.7-15.944,11.352-21.181,8.014C377.924,140.98,374.664,132.435,381.484,121.734z M399.42,131.566
		c2.293-3.597,4.269-9.509-0.239-12.382c-4.508-2.874-9.033,1.414-11.326,5.011c-2.321,3.643-4.446,9.588,0.152,12.519
		S397.099,135.209,399.42,131.566z"/>
	<path display="inline" d="M425.819,131.138c0.802,0.64,0.954,0.968,0.617,1.391s-5.52,3.542-8.28,7.004
		c-0.641,0.802-0.857,1.941-0.309,2.379c0.76,0.606,3.765,2.381,5.664,3.551c2.026,1.271,2.837,1.641,3.645,0.627
		c2.459-3.082,3.555-9.393,3.857-9.772c0.37-0.465,0.716-0.465,1.646,0.276l4.602,3.67c1.352,1.078-5.078,11.217-10.601,18.141
		c-1.246,1.562-8.757,10.632-9.728,9.857l-5.024-4.007c-0.845-0.673-1.275-1.086-0.938-1.508c0.135-0.169,0.379-0.389,0.522-0.481
		c3.657-1.987,6.505-4.691,9.063-7.899c1.785-2.238,1.91-3.174-0.454-5.06c-3.547-2.829-7.165-3.229-10.196,0.571
		c-4.041,5.067-3.725,7.875-4.264,8.55c-0.202,0.253-0.742,0.237-1.544-0.402l-5.235-4.176c-0.718-0.573,6.117-9.489,7.7-11.474
		c1.886-2.364,13.346-15.952,14.485-15.043L425.819,131.138z"/>
</g>
<path fill="#FEE94E" d="M451.864,442.517c0,24.302-19.705,44.007-44.006,44.007c-24.303,0-44.007-19.705-44.007-44.007
	s19.704-44.006,44.007-44.006C432.159,398.511,451.864,418.215,451.864,442.517z"/>
<g>
	<g>
		<polygon fill="#C50D1D" stroke="#000000" stroke-width="2" stroke-miterlimit="10" points="303.423,233.75 311.673,200.75 
			313.923,200.75 336.923,227.75 		"/>
		<circle fill="#C50D1D" stroke="#000000" stroke-width="2" stroke-miterlimit="10" cx="311.834" cy="195.839" r="5.839"/>
	</g>
	<path fill="#FFFFFF" stroke="#000000" stroke-width="2" stroke-miterlimit="10" d="M201.923,432.667h41.334
		c0,0-3.334-35.669,22.666-35.334s21.334,36.004,21.334,36.004l41.333-0.666c0,0,42.666-93.669,87.333-255.337
		c-5.5-2.458-6.667-2.667-6.667-2.667s-46.121,45.719-73.833,51.583c-83.287,17.625-124.25-2.25-158.375,47.98
		C133.396,338.488,201.923,432.667,201.923,432.667z"/>
	<path fill="#FFFFFF" stroke="#000000" stroke-width="2" stroke-miterlimit="10" d="M317.59,259.666
		c-16.472-11.332-51.667,12-34.667,40.334c19.334,26.333,48.678,4.002,48.667-13.666"/>
	<circle cx="343.09" cy="247.166" r="3.5"/>
	<g>
		<g>
			<g>
				<path stroke="#000000" stroke-width="0.5" stroke-miterlimit="10" d="M363.843,281.78c0.055-0.037,0.299,0.179,0.68,0.577
					c0.379,0.401,0.879,1.001,1.608,1.587c1.362,1.255,3.486,2.595,5.867,3.157c2.365,0.604,4.858,0.544,6.692,0.229
					c1.844-0.308,3.041-0.746,3.119-0.768c0.327-0.099,0.722,0.199,0.913,0.688c0.189,0.483,0.033,1.001-0.339,1.113
					c-0.094,0.026-1.438,0.458-3.459,0.692c-2.011,0.245-4.753,0.166-7.301-0.671c-2.569-0.794-4.752-2.443-6.012-3.919
					c-0.684-0.701-1.105-1.395-1.394-1.88C363.928,282.104,363.79,281.817,363.843,281.78z"/>
			</g>
		</g>
	</g>
</g>
<circle fill="#B9C920" cx="151.923" cy="243.666" r="26"/>
<g display="none">
	<path display="inline" d="M152.492,507.868c0.375-1.039,2.984-3.386,3.572-5.014c0.113-0.312-0.567-0.597-0.948-0.733
		c-0.243-0.088-2.724-0.593-9.165-2.92c-3.637-1.313-7.392-3.062-8.119-3.324c-0.381-0.138-1.086-0.354-1.199-0.041
		c-0.588,1.628-0.08,5.101-0.455,6.14c-0.25,0.692-0.934,0.524-2.146,0.086l-3.429-1.238c-1.247-0.451-1.339-0.522-0.976-1.527
		c3.066-8.486,4.396-10.434,6.023-9.846c1.316,0.476,2.043,0.308,3.075-0.925c0.408-0.479,11.851-20.232,17.565-18.167l7.933,2.865
		c1.316,0.476-0.034,10.717-3.688,20.831c-0.688,1.904-1.124,3.979,0.365,4.518c1.628,0.588,1.406,2.936-1.659,11.422
		c-0.363,1.004-0.479,1.001-1.727,0.551l-3.429-1.238C152.875,508.868,152.241,508.562,152.492,507.868z M144.017,491.22
		c-0.351,0.97-0.186,1.813,3.418,3.114c3.844,1.389,4.521,1.359,5.68,0.211c0.608-0.602,1.717-3.021,2.168-4.268
		c4.454-12.331,3.303-13.805,1.951-14.292l-1.662-0.601C153.632,474.684,145.018,488.449,144.017,491.22z"/>
	<path display="inline" d="M166.894,506.234c-1.17-0.328-1.42-0.666,0.869-8.822c1.332-4.752,7.869-20.552,8.898-20.264l13.971,3.92
		c1.561,0.438,1.652,0.655,1.533,1.08c-0.079,0.284-3.742,4.612-4.203,4.482c-0.603-0.169-1.199-2.134-4.674-3.109
		c-2.447-0.687-5.443,0.041-6.398,3.445c-0.209,0.745-0.426,2.062,0.567,2.34c1.135,0.318,4.12-0.642,7.099,0.194
		c0.426,0.119,1.557,0.589,1.387,1.192c-0.01,0.035-3.617,5.258-4.043,5.139c-0.354-0.1-1.502-1.187-2.886-1.574
		c-1.809-0.508-4.801,0.068-5.786,3.579c-0.795,2.837,0.117,5.312,3.096,6.146c3.511,0.985,6.33-0.748,7.182-0.51
		c0.531,0.149,1.227,6.809,1.127,7.164c-0.08,0.283-0.256,0.502-1.461,0.163L166.894,506.234z"/>
	<path display="inline" d="M195.75,513.684c-1.368-0.295-2.246-0.598-0.327-9.492c1.731-8.03,4.419-12.802,4.707-14.135
		c0.303-1.404,0.165-1.811-0.304-1.912c-2.557-0.551-7.995,2.647-8.607,2.516c-0.432-0.093-0.48-0.217-0.318-0.973
		c0.241-1.116,2.177-5.372,2.935-6.264c0.507-0.607,5.648-0.854,10.511,0.193c5.797,1.251,10.613,3.91,10.248,5.603
		c-0.342,1.584-2.845,4.625-3.24,4.539c-0.613-0.132-1.444-3.439-4.037-3.998c-2.197-0.474-4.041,6.326-4.755,9.64
		c-1.996,9.255-0.994,14.219-1.134,14.867c-0.109,0.504-0.492,0.534-1.896,0.231L195.75,513.684z"/>
	<path display="inline" d="M213.657,502.655c1.165-7.907,6.884-15.888,15.738-14.583c3.171,0.468,7.854,2.535,7.274,6.471
		c-0.313,2.113-1.947,3.102-4.242,2.763c-1.494-0.22,1.016-3.35-3.613-4.032c-5.319-0.784-8.379,4.313-9.051,8.867
		c-1.025,6.959,3.299,10.464,6.469,10.931c5.939,0.876,7.233-4.369,7.561-4.321c0.511,0.075,0.529,1.717,0.282,3.393
		c-0.795,5.393-5.374,7.92-10.476,7.168C215.328,518.091,212.572,510.016,213.657,502.655z"/>
	<path display="inline" d="M258.541,491.489c0.698,0.054,1.127,0.234,1.082,0.822c-0.42,5.473-7.045,10.431-7.102,11.166
		c-0.063,0.808,6.541,7.189,5.714,17.95c-0.042,0.552-0.573,0.732-1.639,0.65l-4.481-0.345c-0.623-0.048-0.751-0.796-0.694-1.531
		c0.626-8.153-2.474-12.529-3.097-12.577c-0.883-0.068-4.25,2.407-4.41,4.501c-0.113,1.469,0.633,8.103,0.61,8.396
		c-0.034,0.44-0.342,0.602-0.745,0.57l-4.481-0.344c-1.175-0.091-2.001-0.413-1.015-13.23c1.326-17.263,2.996-17.355,3.877-17.288
		l3.71,0.285c0.808,0.063,1.198,0.276,1.155,0.828c-0.008,0.109-2.158,5.006-2.564,10.295c-0.104,1.358-0.104,2.319,0.447,2.361
		c0.771,0.06,6.799-5.795,8.966-11.872c0.282-0.791,0.37-0.969,1.142-0.909L258.541,491.489z"/>
	<path display="inline" d="M278.558,522.425c-1.067-0.001-1.361-0.187-1.361-0.555c0-0.184,0.037-0.368,0.111-0.516
		c1.295-3.387,2.375-10.383,2.381-14.03c0.007-4.162-0.287-4.788-1.171-4.79c-1.915-0.003-9.608,18.512-10.015,19.358
		c-0.147,0.295-0.664,0.515-0.885,0.515l-4.052-0.007c-0.773-0.001-1.021-6.742-1.011-12.194c0.004-2.688,0.768-18.453,2.535-18.45
		l5.01,0.009c0.662,0.001,1.068,0.075,1.066,0.518c0,0.479-2.625,6.552-2.636,12.556c-0.003,2.1,0.106,2.652,0.659,2.653
		c1.399,0.003,2.623-4.489,6.908-12.291c1.293-2.355,2.031-3.423,2.842-3.421l3.242,0.005c1.398,0.003,2.892,10.613,2.879,18.459
		c-0.008,4.236-0.241,12.192-1.199,12.19L278.558,522.425z"/>
	<path display="inline" d="M306.101,520.952c-1.064,0.086-1.373-0.074-1.402-0.441c-0.015-0.184,0.008-0.37,0.068-0.522
		c1.014-3.481,1.516-10.543,1.223-14.178c-0.335-4.148-0.68-4.748-1.561-4.678c-1.908,0.154-8.056,19.236-8.392,20.113
		c-0.123,0.306-0.62,0.567-0.84,0.585l-4.038,0.326c-0.771,0.062-1.57-6.636-2.008-12.069c-0.217-2.68-0.749-18.452,1.014-18.595
		l4.992-0.402c0.661-0.054,1.07-0.013,1.106,0.428c0.038,0.478-2.079,6.745-1.597,12.729c0.168,2.093,0.322,2.635,0.873,2.59
		c1.396-0.112,2.246-4.688,5.877-12.815c1.096-2.453,1.744-3.577,2.552-3.642l3.23-0.261c1.396-0.112,3.753,10.339,4.384,18.159
		c0.34,4.222,0.76,12.17-0.195,12.246L306.101,520.952z M298.799,482.631c1.872-0.15,3.156-2.102,4.294-2.193
		c0.845-0.068,2.266,2.44,2.396,4.056c0.095,1.175-2.833,2.445-6.32,2.727c-3.488,0.281-6.594-0.65-6.688-1.825
		c-0.131-1.615,1.352-4.321,2.195-4.39C295.668,480.925,297.331,482.749,298.799,482.631z"/>
	<path display="inline" d="M341.398,484.362c0.687-0.137,1.148-0.078,1.264,0.5c1.071,5.384-3.972,11.946-3.828,12.669
		c0.158,0.795,8.238,5.16,10.344,15.747c0.108,0.542-0.354,0.859-1.402,1.067l-4.408,0.877c-0.614,0.122-0.938-0.564-1.082-1.287
		c-1.596-8.021-5.761-11.4-6.375-11.278c-0.867,0.173-3.443,3.465-3.033,5.524c0.287,1.445,2.795,7.633,2.853,7.922
		c0.086,0.434-0.167,0.671-0.564,0.75l-4.408,0.877c-1.156,0.23-2.038,0.143-4.546-12.468c-3.378-16.982-1.795-17.522-0.928-17.695
		l3.649-0.726c0.795-0.158,1.229-0.057,1.336,0.485c0.021,0.108-0.728,5.403,0.307,10.606c0.267,1.337,0.525,2.263,1.067,2.154
		c0.759-0.15,4.985-7.415,5.434-13.852c0.059-0.838,0.095-1.033,0.854-1.185L341.398,484.362z"/>
	<path display="inline" d="M368.097,476.921c1.449-0.425,4.327,6.905,7.311,17.083c0.498,1.696,3.183,11.77,2.052,12.102
		l-5.089,1.492c-1.202,0.352-1.37,0.171-1.463-0.147c-0.052-0.177-0.033-0.374-0.039-0.525c0.026-6.455-2.339-16.354-3.333-19.746
		c-0.705-2.403-1.715-4.41-4.083-3.716c-3.993,1.171-4.23,1.932-3.447,6.959l1.265,8.11c1.899,12.108-1.749,13.408-3.622,13.957
		c-2.757,0.808-5.835-0.4-6.104-1.318c-0.487-1.661-0.146-4.947,0.632-5.175c0.565-0.166,1.869,1.141,2.965,0.819
		c1.272-0.373,1.353-1.932,0.334-8.81l-1.602-10.698c-0.854-5.659-0.512-6.066,1.644-6.698L368.097,476.921z"/>
	<path display="inline" d="M390.744,468.227c1.371-0.537,1.834-0.164,2.357,1.174c3.586,9.158-0.63,29.717-4.603,33.211
		c-0.617,0.241-4.885-2.677-5.181-3.432c-0.335-0.857,2.365-3.457,2.947-5.307c0.35-1.126,0.311-2.338,0.109-2.852
		c-0.47-1.201-10.398-3.524-13.957-12.615c-1.007-2.572-0.54-2.795,1.003-3.398l2.744-1.074c1.578-0.618,1.996-0.663,2.305,0.126
		c0.107,0.274,0.511,2.214,0.738,2.797c1.921,4.905,7.717,8.293,8.746,7.89c0.994-0.389,2.081-7.618,0.483-11.7
		c-0.43-1.098-1.303-2.418-1.41-2.692c-0.161-0.411,0.08-0.703,1.144-1.12L390.744,468.227z"/>
	<path display="inline" d="M412.845,458.718c0.369,0.762,0.525,5.476-0.303,5.877c-1.094,0.53-3.108-0.417-6.356,1.158
		c-3.347,1.622-5.125,2.853-3.422,6.365c2.233,4.607,14.959-4.182,20.342,6.921c1.366,2.816,1.081,7.212-5.083,10.2l-8.782,4.258
		c-1.027,0.498-2.301,0.911-9.853-14.666c-5.56-11.467-4.809-12.281-3.979-12.684l14.682-7.117
		C410.918,458.628,412.524,458.055,412.845,458.718z M407.199,481.266c2.796,5.767,4.521,6.2,7.536,4.737
		c1.79-0.867,3.741-2.837,2.729-4.925c-2.7-5.567-9.174-2.88-10.301-2.333C406.435,479.099,406.476,479.774,407.199,481.266z"/>
</g>
</svg>
