<?xml version="1.0" ?><!DOCTYPE svg  PUBLIC '-//W3C//DTD SVG 1.1//EN'  'http://www.w3.org/Graphics/SVG/1.1/DTD/svg11.dtd'><svg enable-background="new 0 0 550 550" id="Layer_1" version="1.1" viewBox="0 0 550 550" xml:space="preserve" xmlns="http://www.w3.org/2000/svg" xmlns:xlink="http://www.w3.org/1999/xlink"><g><g><path d="M37.4,179.5C25.5,209,19,241.2,19,275     c0,141.4,114.6,256,256,256s256-114.6,256-256c0-33.8-6.5-66-18.4-95.5H37.4z" fill="#EDE5DA" stroke="#603913" stroke-miterlimit="10"/><path d="M275,19c-32.6,0-63.9,6.1-92.6,17.3v142.5H161V45.9l0.2-0.2     c-0.1,0.1-0.3,0.1-0.4,0.2v132.9h-21.4V57.9c-0.1,0-0.1,0.1-0.2,0.1v120.8h-18.8V70.9c-0.2,0.1-0.4,0.3-0.5,0.4v107.4H96V92     c-25.2,24.6-45.3,54.3-58.6,87.5h475.2C474.7,85.4,382.6,19,275,19z" fill="#A86F5A" stroke="#603913" stroke-miterlimit="10"/><path d="M119.9,178.7V71.4C111.5,77.7,103.6,84.6,96,92v86.8H119.9z" fill="#EF4E7B"/><path d="M139.2,178.7V58c-6.5,4.1-12.7,8.4-18.8,13v107.8H139.2z" fill="#FEEB62"/><path d="M160.8,178.7V45.9c-7.3,3.7-14.5,7.7-21.4,12v120.9H160.8z" fill="#A4D7BD"/><path d="M161,178.7h21.4V36.3c-7.2,2.8-14.3,5.9-21.2,9.4l-0.2,0.2V178.7z" fill="#7AC8EF"/><path d="M95.6,178.7c-0.4,0.8-0.6,1.7-0.6,2.7v26c0,3.6,2.9,6.5,6.5,6.5h75.8c3.6,0,6.5-2.9,6.5-6.5v-26     c0-1-0.2-1.9-0.6-2.7H95.6z" fill="#524441"/><g><path d="M407.3,161.7h-36.9c-6.6,0-12-5.4-12-12V116c0-6.6,5.4-12,12-12h36.9c6.6,0,12,5.4,12,12v33.8      C419.3,156.3,413.9,161.7,407.3,161.7z" fill="#062327"/><circle cx="388.8" cy="132.9" fill="#253C3E" r="19.8"/><circle cx="388.8" cy="132.9" fill="#1E2734" r="7.2"/></g><g><circle cx="280.3" cy="285.8" fill="#603913" r="107.5"/><circle cx="279.2" cy="280.9" fill="#E2DEDC" r="107.5"/><circle cx="279.2" cy="280.9" fill="#253C3E" r="87.5"/><circle cx="279.2" cy="280.9" fill="#304748" r="69.3"/><circle cx="279.2" cy="280.9" fill="#2D4C4C" r="46.6"/><circle cx="279.2" cy="280.9" fill="#23333C" r="29.8"/></g></g></g></svg>